<svg xmlns="http://www.w3.org/2000/svg" viewBox="0 0 192 192" fill="none">
  <rect width="192" height="192" rx="24" fill="#3B82F6"/>
  <path d="M96 40C85.5 40 77 48.5 77 59V75H55C49.5 75 45 79.5 45 85V133C45 138.5 49.5 143 55 143H137C142.5 143 147 138.5 147 133V85C147 79.5 142.5 75 137 75H115V59C115 48.5 106.5 40 96 40ZM96 50C101 50 105 54 105 59V75H87V59C87 54 91 50 96 50ZM96 95C101.5 95 106 99.5 106 105C106 110.5 101.5 115 96 115C90.5 115 86 110.5 86 105C86 99.5 90.5 95 96 95Z" fill="white"/>
</svg>
